# Blender v2.79 (sub 0) OBJ File: ''
# www.blender.org
mtllib cvx_hook.mtl
o Shape_IndexedFaceSet.003
v 1.594093 19.772530 -8.505447
v 26.917000 23.356936 -22.488178
v 26.917000 15.161860 -22.488178
v 17.546715 16.332830 4.446783
v 10.522957 28.042538 4.446783
v 4.667183 10.476257 4.446783
v 8.184334 11.648947 -22.488178
v 8.184334 26.869848 -21.314915
v 3.496552 26.869848 4.446783
v 19.887970 10.476257 -21.314915
v 18.714706 28.042538 -22.488178
v -0.017960 15.161860 4.446783
v 14.034836 11.648947 4.446783
v 16.376091 24.527906 4.446783
v 4.667183 13.990889 -20.144291
v 24.573112 25.698877 -21.314915
v 12.864204 28.042538 -22.488178
v 10.522957 10.476257 -22.488178
v 1.442947 21.868500 -5.367954
v 23.402489 11.648947 -22.488178
v 11.693581 10.476257 4.446783
v 5.837807 28.042538 3.273520
v 26.917000 23.356936 -21.314915
v 26.917000 15.161860 -21.314915
v 17.546715 22.185965 4.446783
v 3.859772 21.782417 -15.582825
v 14.034836 26.869848 4.446783
v 5.837807 13.990889 -22.488178
v 2.770760 23.835625 -7.495489
v 1.175926 21.926525 3.252898
v 16.376091 13.990889 4.446783
v 23.402489 11.648947 -21.314915
vn 0.7069 -0.7073 0.0000
vn 0.0000 0.0000 1.0000
vn 0.0000 0.0000 -1.0000
vn -0.6018 -0.7906 -0.1130
vn -0.9712 -0.1590 -0.1775
vn -0.7036 -0.7035 -0.1005
vn 0.3983 0.6972 -0.5960
vn 0.0000 1.0000 0.0000
vn -0.4461 -0.8897 -0.0970
vn 0.0000 -1.0000 -0.0000
vn -0.9925 0.0739 -0.0972
vn 0.0735 -0.8067 -0.5863
vn -0.1376 0.8242 0.5493
vn -0.4808 0.8724 -0.0875
vn -0.2591 0.9633 -0.0707
vn 1.0000 0.0000 0.0000
vn 0.7068 0.7074 0.0000
vn 0.9398 0.0000 0.3418
vn 0.8454 0.4226 0.3267
vn -0.9556 0.0687 -0.2864
vn -0.9371 0.2677 -0.2240
vn 0.3153 0.9441 0.0959
vn 0.3519 0.9305 0.1017
vn 0.6849 0.6847 0.2491
vn 0.6846 0.6851 0.2489
vn -0.6662 -0.6675 -0.3327
vn -0.2729 0.1365 -0.9523
vn -0.8821 0.1665 -0.4406
vn -0.8592 0.1995 -0.4712
vn -0.7169 0.6849 -0.1304
vn -0.8622 0.5010 -0.0749
vn -0.8546 0.4641 -0.2329
vn -0.9016 0.3745 -0.2165
vn -0.7952 0.2387 0.5573
vn -0.9019 0.4308 -0.0308
vn -0.9852 0.1683 -0.0316
vn 0.8454 -0.4226 0.3267
vn 0.6849 -0.6847 0.2491
vn 0.3165 -0.9486 0.0000
vn 0.3149 -0.9438 0.1002
vn 0.4420 -0.8825 0.1607
vn 0.6847 -0.6850 0.2490
usemtl Shape.003
s off
f 20//1 24//1 32//1
f 4//2 5//2 6//2
f 2//3 3//3 7//3
f 6//2 5//2 9//2
f 2//3 7//3 11//3
f 6//2 9//2 12//2
f 4//2 6//2 13//2
f 5//2 4//2 14//2
f 7//4 6//4 15//4
f 12//5 1//5 15//5
f 6//6 12//6 15//6
f 2//7 11//7 16//7
f 5//8 11//8 17//8
f 11//3 7//3 17//3
f 7//3 3//3 18//3
f 6//9 7//9 18//9
f 10//10 6//10 18//10
f 1//11 12//11 19//11
f 18//3 3//3 20//3
f 10//12 18//12 20//12
f 6//10 10//10 21//10
f 13//2 6//2 21//2
f 9//13 5//13 22//13
f 8//14 9//14 22//14
f 17//15 8//15 22//15
f 5//8 17//8 22//8
f 3//16 2//16 23//16
f 2//17 16//17 23//17
f 20//1 3//1 24//1
f 3//16 23//16 24//16
f 23//18 4//18 24//18
f 14//2 4//2 25//2
f 4//18 23//18 25//18
f 23//19 14//19 25//19
f 15//20 1//20 26//20
f 1//21 19//21 26//21
f 11//22 5//22 27//22
f 5//2 14//2 27//2
f 16//23 11//23 27//23
f 14//24 23//24 27//24
f 23//25 16//25 27//25
f 7//26 15//26 28//26
f 17//3 7//3 28//3
f 8//27 17//27 28//27
f 15//28 26//28 28//28
f 26//29 8//29 28//29
f 9//30 8//30 29//30
f 19//31 9//31 29//31
f 8//32 26//32 29//32
f 26//33 19//33 29//33
f 12//34 9//34 30//34
f 9//35 19//35 30//35
f 19//36 12//36 30//36
f 4//2 13//2 31//2
f 24//37 4//37 31//37
f 13//38 24//38 31//38
f 10//39 20//39 32//39
f 21//40 10//40 32//40
f 13//41 21//41 32//41
f 24//42 13//42 32//42
o Shape_IndexedFaceSet.002
v 5.909790 20.794388 24.354683
v 17.546600 22.185965 4.449076
v 17.546600 16.332830 4.449076
v 29.259171 22.185965 27.866199
v 22.229332 10.476257 27.866199
v 4.667641 10.476257 4.449076
v 3.498390 26.869848 4.449076
v 19.887970 28.042538 27.866199
v 9.353241 11.648947 27.866199
v -0.017960 22.185965 7.963018
v 9.353241 26.869848 26.694885
v 14.038849 26.869848 4.449076
v 29.259171 15.161860 26.694885
v 12.869591 10.476257 4.449076
v 7.009010 13.990889 27.866199
v 28.087059 24.527906 26.694885
v 10.525360 28.042538 4.449076
v 1.167503 16.569830 5.397258
v 11.694611 10.476257 27.866199
v 7.009010 25.698877 25.523571
v 3.498390 26.869848 9.134333
v 26.914940 12.819918 26.694885
v 29.259171 22.185965 26.694885
v 23.401451 26.869848 26.694885
v 16.374481 13.990889 4.449076
v 2.794418 16.689297 15.131005
v 2.885849 14.668384 11.056178
v 29.259171 15.161860 27.866199
v 16.374481 24.527906 4.449076
v 2.326271 25.698877 10.303356
v 4.667641 10.476257 5.620389
v 11.694611 28.042538 5.620389
vn 0.3771 0.9125 -0.1587
vn 0.0000 0.0000 -1.0000
vn -0.0000 0.0000 1.0000
vn 0.8848 0.0000 -0.4659
vn 0.0000 -1.0000 0.0000
vn -0.9394 0.0246 0.3418
vn -0.1221 0.1119 0.9862
vn 0.3452 0.5523 0.7589
vn -0.1156 0.9922 0.0462
vn -0.2954 -0.0211 -0.9551
vn -0.7765 0.1188 -0.6188
vn -0.9295 0.1257 0.3468
vn -0.8867 0.0907 0.4533
vn -0.5068 0.1691 0.8453
vn -0.1646 0.9864 0.0000
vn -0.1351 0.9898 0.0451
vn -0.5067 0.8454 0.1689
vn 0.4084 -0.8981 -0.1632
vn 0.6625 -0.6631 -0.3484
vn 1.0000 0.0000 0.0000
vn 0.8091 0.4049 -0.4260
vn 0.8943 0.4476 0.0000
vn 0.4084 0.8171 0.4070
vn 0.4394 0.8791 -0.1849
vn 0.8016 -0.4012 -0.4432
vn 0.6634 -0.6616 -0.3494
vn -0.9505 -0.1052 0.2923
vn -0.9480 -0.2740 0.1618
vn -0.9193 -0.3603 0.1581
vn -0.8771 -0.4379 0.1975
vn 0.4852 -0.7280 0.4844
vn 0.7068 -0.7075 0.0000
vn 0.6635 0.6617 -0.3493
vn -0.8158 0.5764 -0.0480
vn -0.8742 0.4042 0.2690
vn -0.7068 0.7075 0.0000
vn -0.5970 0.7809 0.1837
vn -0.6948 -0.6955 0.1830
vn -0.8671 -0.4981 0.0000
vn -0.4434 -0.8853 0.1401
vn -0.8646 -0.4931 0.0969
vn -0.8043 -0.5680 0.1744
vn 0.0000 1.0000 0.0000
vn 0.3019 0.9045 -0.3013
vn 0.2834 0.9533 -0.1044
usemtl Shape.002
s off
f 56//43 44//43 64//43
f 34//44 35//44 38//44
f 34//44 38//44 39//44
f 37//45 36//45 40//45
f 37//45 40//45 41//45
f 34//44 39//44 44//44
f 35//46 34//46 45//46
f 38//44 35//44 46//44
f 37//47 38//47 46//47
f 41//45 40//45 47//45
f 33//48 42//48 47//48
f 40//49 43//49 47//49
f 40//50 36//50 48//50
f 43//51 40//51 49//51
f 44//44 39//44 49//44
f 39//52 38//52 50//52
f 42//53 39//53 50//53
f 38//47 37//47 51//47
f 37//45 41//45 51//45
f 42//54 33//54 52//54
f 33//55 47//55 52//55
f 47//56 43//56 52//56
f 49//57 39//57 53//57
f 43//58 49//58 53//58
f 52//59 43//59 53//59
f 37//60 46//60 54//60
f 46//61 45//61 54//61
f 45//46 34//46 55//46
f 36//62 45//62 55//62
f 34//63 48//63 55//63
f 48//64 36//64 55//64
f 40//65 48//65 56//65
f 48//66 44//66 56//66
f 35//67 45//67 57//67
f 45//68 46//68 57//68
f 46//44 35//44 57//44
f 47//69 42//69 58//69
f 42//70 50//70 58//70
f 58//71 50//71 59//71
f 47//72 58//72 59//72
f 36//45 37//45 60//45
f 45//62 36//62 60//62
f 37//73 54//73 60//73
f 54//74 45//74 60//74
f 34//44 44//44 61//44
f 48//63 34//63 61//63
f 44//75 48//75 61//75
f 39//76 42//76 62//76
f 42//77 52//77 62//77
f 53//78 39//78 62//78
f 52//79 53//79 62//79
f 41//80 47//80 63//80
f 50//81 38//81 63//81
f 38//47 51//47 63//47
f 51//82 41//82 63//82
f 59//83 50//83 63//83
f 47//84 59//84 63//84
f 49//85 40//85 64//85
f 44//86 49//86 64//86
f 40//87 56//87 64//87
o Shape_IndexedFaceSet.001
v 22.892937 12.445994 -34.814331
v 107.717072 22.185965 -57.620747
v 108.882889 24.527906 -56.448048
v 111.235146 13.990889 -41.220276
v 19.899429 28.042538 -22.488182
v 22.241371 25.698877 -37.712521
v 21.065239 10.476257 -22.488182
v 108.882889 10.476257 -52.933422
v 110.059013 28.042538 -47.080288
v 111.235146 21.013275 -40.054462
v 34.647850 16.771748 -42.045166
v 7.962730 15.327107 -23.196606
v 29.267197 16.332830 -22.488182
v 104.199005 13.990889 -56.448048
v 101.846741 28.042538 -50.591480
v 108.882889 10.476257 -44.738346
v 12.873604 28.042538 -23.660870
v 111.235146 26.869848 -43.562218
v 87.805412 22.185965 -54.102673
v 19.708313 17.643938 -36.823547
v 31.907356 11.860537 -37.099552
v 28.091064 23.356936 -22.488182
v 7.489456 22.094223 -23.038845
v 111.235146 24.527906 -41.220276
v 104.199005 25.698877 -55.275364
v 88.981544 15.161860 -54.102673
v 33.829704 20.739880 -42.031342
v 96.007370 12.819918 -54.102673
v 29.619789 13.775129 -39.061581
v 108.882889 15.161860 -40.054462
v 12.039108 17.601221 -30.092403
v 111.235146 11.648947 -43.562218
vn 1.0000 0.0000 0.0000
vn 0.8256 -0.1369 -0.5474
vn -0.3311 -0.9229 -0.1966
vn -0.0000 0.0000 1.0000
vn 0.4170 -0.3017 -0.8574
vn 0.1557 0.9183 -0.3641
vn 0.0000 1.0000 0.0000
vn 0.0000 -1.0000 0.0000
vn -0.0618 0.9770 -0.2041
vn 0.9355 0.2757 -0.2209
vn 0.0794 0.9534 0.2912
vn -0.1073 -0.9792 -0.1724
vn -0.0438 -0.9910 -0.1264
vn 0.2075 0.0347 0.9776
vn -0.0430 -0.0029 0.9991
vn -0.0642 -0.0277 0.9976
vn -0.1596 0.2445 0.9564
vn -0.6565 0.5391 -0.5276
vn 0.1697 0.6968 0.6968
vn 0.2011 0.3515 0.9144
vn 0.2050 0.3082 0.9290
vn -0.0968 0.4838 -0.8698
vn 0.1300 0.9113 -0.3907
vn -0.1042 0.8675 -0.4864
vn -0.1567 0.4351 -0.8867
vn -0.1756 0.5458 -0.8193
vn -0.1574 -0.0733 -0.9848
vn -0.1739 -0.0291 -0.9843
vn -0.2157 0.3041 -0.9279
vn -0.3471 0.0057 -0.9378
vn -0.3326 -0.0653 -0.9408
vn -0.2172 -0.0364 -0.9755
vn -0.2176 -0.0415 -0.9751
vn -0.0784 -0.7552 -0.6508
vn -0.1146 -0.8693 -0.4809
vn -0.1693 -0.5078 -0.8447
vn -0.1895 -0.5686 -0.8005
vn -0.3286 -0.3298 -0.8850
vn -0.3774 -0.5259 -0.7623
vn -0.1942 -0.8056 -0.5597
vn -0.2017 -0.5001 -0.8422
vn -0.1468 -0.7881 -0.5979
vn 0.1975 -0.4633 0.8639
vn 0.3773 -0.1517 0.9136
vn 0.2026 -0.2838 0.9372
vn 0.2135 -0.0858 0.9732
vn -0.5409 -0.6497 -0.5340
vn -0.6550 0.1237 -0.7455
vn -0.5401 -0.5702 -0.6190
vn -0.8529 -0.0475 -0.5199
vn -0.7096 0.2897 -0.6423
vn 0.1719 -0.6966 0.6966
vn 0.9699 -0.0590 -0.2361
vn 0.1385 -0.8259 0.5465
vn 0.4462 -0.8950 0.0000
vn 0.9837 0.0000 -0.1796
usemtl Shape.001
s off
f 82//88 68//88 96//88
f 66//89 67//89 72//89
f 65//90 71//90 76//90
f 69//91 71//91 77//91
f 66//92 72//92 78//92
f 73//93 67//93 79//93
f 69//94 73//94 79//94
f 71//95 72//95 80//95
f 79//96 70//96 81//96
f 69//94 79//94 81//94
f 67//97 73//97 82//97
f 73//98 69//98 82//98
f 74//88 68//88 82//88
f 71//99 65//99 85//99
f 72//100 71//100 85//100
f 69//91 77//91 86//91
f 77//101 74//101 86//101
f 71//102 69//102 87//102
f 76//103 71//103 87//103
f 69//104 81//104 87//104
f 81//105 70//105 87//105
f 82//106 69//106 88//106
f 74//88 82//88 88//88
f 69//107 86//107 88//107
f 86//108 74//108 88//108
f 67//109 66//109 89//109
f 79//110 67//110 89//110
f 70//111 79//111 89//111
f 66//112 83//112 89//112
f 83//113 70//113 89//113
f 66//114 78//114 90//114
f 83//115 66//115 90//115
f 70//116 83//116 91//116
f 84//117 70//117 91//117
f 75//118 84//118 91//118
f 83//119 90//119 91//119
f 90//120 75//120 91//120
f 78//121 72//121 92//121
f 72//122 85//122 92//122
f 90//123 78//123 92//123
f 90//124 92//124 93//124
f 84//125 75//125 93//125
f 65//126 84//126 93//126
f 85//127 65//127 93//127
f 75//128 90//128 93//128
f 92//129 85//129 93//129
f 71//130 68//130 94//130
f 68//131 74//131 94//131
f 77//132 71//132 94//132
f 74//133 77//133 94//133
f 65//134 76//134 95//134
f 70//135 84//135 95//135
f 84//136 65//136 95//136
f 76//137 87//137 95//137
f 87//138 70//138 95//138
f 68//139 71//139 96//139
f 72//140 67//140 96//140
f 71//141 80//141 96//141
f 80//142 72//142 96//142
f 67//143 82//143 96//143
o Shape_IndexedFaceSet
v 295.084106 23.356936 29.041525
v 295.084106 10.476257 40.748482
v 276.333221 26.869848 43.090652
v 18.727066 28.042538 33.725868
v 12.890320 10.476257 27.870440
v 295.084106 11.648947 31.383696
v 42.158623 10.476257 43.090652
v 295.084106 13.990889 45.432827
v 33.953354 24.527906 46.603912
v 14.046402 28.042538 27.870440
v 295.084106 28.042538 39.577396
v 283.354248 19.842304 46.603912
v 49.179634 28.042538 41.919571
v 44.498962 15.161860 47.774998
v 295.084106 15.161860 29.041525
v 295.084106 26.869848 32.554783
v 19.699715 15.262664 39.534229
v 295.084106 25.698877 44.261742
v 10.667488 22.135609 31.494488
v 22.042152 26.017056 27.378691
v 33.953354 26.869848 44.261742
v 271.652557 24.527906 45.432827
v 23.259499 12.565503 27.477240
v 265.787598 16.332830 46.603912
v 21.653015 19.829414 41.828983
v 244.724579 10.476257 41.919571
v 8.740143 15.210643 27.988928
v 269.312225 21.013275 46.603912
v 33.991196 16.472675 46.184303
v 30.738533 12.018841 41.720451
v 17.067207 23.266592 37.251991
v 14.075935 19.832392 36.097881
vn -0.6597 0.3514 0.6643
vn 1.0000 0.0000 0.0000
vn 0.0057 -0.9922 -0.1243
vn 0.0000 -1.0000 0.0000
vn 0.0000 1.0000 0.0000
vn 0.0032 0.9434 0.3317
vn 0.0033 -0.7078 0.7064
vn 0.0127 -0.5547 -0.8320
vn 0.0147 0.7071 -0.7070
vn 0.0069 0.9863 -0.1647
vn 0.0279 0.8940 0.4473
vn 0.1474 0.0984 0.9842
vn -0.6011 0.6386 0.4805
vn 0.0085 0.2674 -0.9636
vn 0.0061 0.0000 -1.0000
vn -0.3987 0.6485 0.6484
vn 0.0022 0.8883 0.4592
vn -0.0482 0.9827 0.1790
vn 0.0033 0.7330 0.6803
vn 0.0032 0.7071 0.7071
vn 0.0037 0.6696 0.7427
vn 0.0316 0.3159 0.9483
vn 0.0077 -0.2219 -0.9750
vn -0.0358 -0.0106 -0.9993
vn 0.0058 -0.0068 -1.0000
vn 0.0283 -0.1414 0.9895
vn 0.0069 -0.3769 0.9262
vn 0.0054 -0.0272 0.9996
vn 0.0140 -0.7998 0.6001
vn 0.0039 -0.7345 0.6786
vn -0.6064 -0.5460 0.5781
vn -0.8988 0.3695 -0.2358
vn -0.0386 -0.0089 -0.9992
vn -0.0577 0.0146 -0.9982
vn 0.0019 0.1262 0.9920
vn 0.0040 0.0476 0.9989
vn 0.0047 0.3133 0.9496
vn 0.0251 0.3009 0.9533
vn -0.1558 -0.0521 0.9864
vn -0.3446 -0.0504 0.9374
vn -0.3860 -0.2771 0.8799
vn -0.1641 -0.9346 0.3156
vn -0.1765 -0.6504 0.7388
vn -0.3340 -0.7874 0.5181
vn -0.1925 -0.6210 0.7598
vn -0.3145 -0.5475 0.7754
vn -0.4119 0.6295 0.6588
vn -0.5902 0.6021 0.5377
vn -0.4634 0.4204 0.7800
vn -0.5842 0.2492 0.7724
vn -0.5972 -0.1413 0.7895
vn -0.6787 -0.3496 0.6459
vn -0.8169 -0.0629 0.5734
usemtl Shape
s off
f 127//144 115//144 128//144
f 97//145 98//145 102//145
f 98//146 101//146 102//146
f 101//147 98//147 103//147
f 98//145 97//145 104//145
f 104//145 97//145 107//145
f 106//148 100//148 107//148
f 99//149 107//149 109//149
f 107//148 100//148 109//148
f 103//150 104//150 110//150
f 97//145 102//145 111//145
f 102//151 101//151 111//151
f 97//152 106//152 112//152
f 107//145 97//145 112//145
f 106//153 107//153 112//153
f 104//145 107//145 114//145
f 107//154 99//154 114//154
f 108//155 104//155 114//155
f 100//156 106//156 115//156
f 106//157 97//157 116//157
f 97//158 111//158 116//158
f 100//159 105//159 117//159
f 99//160 109//160 117//160
f 109//161 100//161 117//161
f 114//162 99//162 117//162
f 105//163 114//163 117//163
f 114//164 105//164 118//164
f 108//165 114//165 118//165
f 111//166 101//166 119//166
f 101//167 116//167 119//167
f 116//168 111//168 119//168
f 104//169 108//169 120//169
f 110//170 104//170 120//170
f 108//171 110//171 120//171
f 103//147 98//147 122//147
f 98//172 104//172 122//172
f 104//173 103//173 122//173
f 101//174 113//174 123//174
f 115//175 106//175 123//175
f 116//176 101//176 123//176
f 106//177 116//177 123//177
f 105//178 110//178 124//178
f 110//179 108//179 124//179
f 118//180 105//180 124//180
f 108//181 118//181 124//181
f 110//182 105//182 125//182
f 105//183 121//183 125//183
f 121//184 113//184 125//184
f 101//185 103//185 126//185
f 103//186 110//186 126//186
f 113//187 101//187 126//187
f 110//188 125//188 126//188
f 125//189 113//189 126//189
f 105//190 100//190 127//190
f 100//191 115//191 127//191
f 121//192 105//192 127//192
f 121//193 127//193 128//193
f 113//194 121//194 128//194
f 123//195 113//195 128//195
f 115//196 123//196 128//196
